<svg version="1.1" id="Layer_1" xmlns="http://www.w3.org/2000/svg" xmlns:xlink="http://www.w3.org/1999/xlink" x="0px" y="0px"
	 width="100%" viewBox="0 0 200 200" enable-background="new 0 0 200 200" xml:space="preserve">
<path fill="#FFFFFF" opacity="1.000000" stroke="none" 
	d="
M1.000000,74.000000 
	C1.000000,49.333340 1.000000,25.166677 1.000000,1.000013 
	C67.666649,1.000009 134.333298,1.000009 200.999954,1.000004 
	C200.999969,67.666634 200.999969,134.333267 200.999985,200.999908 
	C134.333389,200.999939 67.666771,200.999939 1.000080,200.999969 
	C1.000000,158.833328 1.000000,116.666664 1.000000,74.000000 
M185.004837,9.652887 
	C185.842743,5.692987 183.280792,5.967849 180.635529,5.969541 
	C127.138748,6.003767 73.641945,5.994581 20.145144,6.000736 
	C19.196835,6.000845 18.248535,6.082163 17.239864,6.128353 
	C17.239864,69.548981 17.239864,132.617325 17.239864,195.757172 
	C73.220818,195.757172 128.956146,195.757172 184.532715,195.757172 
	C184.775711,195.376282 184.934692,195.243469 184.934753,195.110596 
	C184.965240,133.614883 184.984970,72.119171 185.004837,9.652887 
z"/>
<path fill="#131313" opacity="1.000000" stroke="none" 
	d="
M185.004852,10.138172 
	C184.984970,72.119171 184.965240,133.614883 184.934753,195.110596 
	C184.934692,195.243469 184.775711,195.376282 184.532715,195.757172 
	C128.956146,195.757172 73.220818,195.757172 17.239864,195.757172 
	C17.239864,132.617325 17.239864,69.548981 17.239864,6.128353 
	C18.248535,6.082163 19.196835,6.000845 20.145144,6.000736 
	C73.641945,5.994581 127.138748,6.003767 180.635529,5.969541 
	C183.280792,5.967849 185.842743,5.692987 185.004852,10.138172 
M140.381317,101.162506 
	C139.925919,101.950714 139.075851,102.737396 139.072815,103.527351 
	C138.995224,123.636597 138.972977,143.746399 139.098022,163.855118 
	C139.104446,164.887405 140.506821,165.911026 141.842148,167.386887 
	C144.002319,168.150574 146.162476,168.914246 149.078384,169.945099 
	C148.746567,172.434875 148.372101,175.244827 147.343216,178.199402 
	C146.899414,178.164505 146.455597,178.129608 145.546860,177.610046 
	C144.081345,178.498566 141.350357,179.424850 141.375565,180.268845 
	C141.470367,183.444351 142.463104,186.593048 143.119507,189.751785 
	C143.400665,189.613693 143.681839,189.475601 144.903946,189.307343 
	C153.222717,189.303391 161.542221,189.354385 169.859634,189.245850 
	C171.392731,189.225845 172.917404,188.560089 175.183517,188.064514 
	C174.951263,185.976242 174.719009,183.887955 174.428345,181.270279 
	C174.479797,180.920486 174.531235,180.570679 175.249435,179.997009 
	C176.528976,179.376740 177.808533,178.756485 179.348221,177.673340 
	C179.447571,177.526855 179.546936,177.380386 180.238708,176.816895 
	C180.353424,174.219101 180.741394,171.588730 180.437500,169.040863 
	C180.328262,168.124985 178.553284,167.407791 176.694855,166.656570 
	C175.933167,164.964890 174.515594,163.276337 174.507568,161.581085 
	C174.372955,133.151505 174.432831,104.721046 174.364258,76.290993 
	C174.360657,74.799316 173.598404,73.309486 173.189346,71.818794 
	C171.839188,72.574768 170.246948,73.082581 169.177231,74.126038 
	C160.733231,82.362801 152.388916,90.701744 143.401169,98.975189 
	C142.674957,99.667679 141.948746,100.360168 140.381317,101.162506 
M177.664566,58.937347 
	C180.766846,55.619591 177.031067,55.159225 175.381592,52.911568 
	C175.313583,50.269238 175.245575,47.626907 175.772781,44.431572 
	C175.451172,40.952126 175.129562,37.472679 174.697037,33.119225 
	C174.697037,26.118658 174.697037,19.118090 174.697037,11.245290 
	C158.935989,26.958466 144.344131,41.506023 129.619873,56.185558 
	C130.427765,56.556660 131.465988,57.033566 133.284912,57.869087 
	C127.348228,61.533020 124.805138,68.707420 117.066154,68.465088 
	C116.560875,68.449272 115.979568,69.176743 115.519661,69.643280 
	C103.593094,81.741615 91.643295,93.817749 79.843597,106.038780 
	C79.104774,106.803993 78.913132,109.317696 79.553734,110.005028 
	C85.648041,116.544029 91.977463,122.863899 98.446732,129.458206 
	C100.119362,127.967827 101.264473,127.047592 102.295525,126.013618 
	C115.939095,112.331276 129.537460,98.603737 143.212921,84.953400 
	C148.488998,79.687019 153.931030,74.586914 160.214005,69.801567 
	C163.177231,69.336266 166.753174,72.048996 169.349197,67.503174 
	C171.897858,64.667519 174.446503,61.831867 177.664566,58.937347 
M57.781906,88.624947 
	C61.255432,91.896988 64.728958,95.169029 67.377464,97.663902 
	C74.574715,90.573822 81.270309,83.977921 87.615074,77.727631 
	C81.895836,70.408607 76.122871,62.551434 69.796112,55.168861 
	C67.456352,52.438637 63.485161,51.170860 60.822857,48.641560 
	C49.375050,37.765656 38.142994,26.662792 26.811569,15.664004 
	C25.943451,14.821367 24.913803,14.145145 23.368534,12.925246 
	C23.205439,14.707575 23.046656,15.641115 23.045683,16.574820 
	C23.033031,28.739710 23.191296,40.907410 22.962988,53.067955 
	C22.887234,57.102898 24.241875,58.614254 28.150188,58.055477 
	C32.522003,57.430428 32.435852,60.275852 32.425037,63.360443 
	C32.414902,66.250862 32.539642,68.999413 28.431570,68.362778 
	C23.749388,67.637161 22.951126,69.931984 22.972425,74.074348 
	C23.119804,102.736176 23.130856,131.399582 22.966843,160.061218 
	C22.941439,164.500748 22.962128,168.084686 28.795475,167.481262 
	C28.795475,171.124786 28.795475,174.382324 28.795475,177.705246 
	C26.266632,178.563995 22.793335,177.265167 22.917288,182.019424 
	C23.107090,189.299255 22.748552,189.308411 30.177479,189.307510 
	C34.010265,189.307037 37.843056,189.307358 41.675842,189.307343 
	C46.086605,189.307327 50.497368,189.307343 55.292267,189.307343 
	C55.292267,185.299637 55.292267,182.187454 55.292267,179.495911 
	C58.171764,178.596710 62.037624,178.435898 62.603489,176.986649 
	C63.657722,174.286545 63.150356,170.755386 62.470779,167.756409 
	C62.302380,167.013260 58.959339,167.076218 57.128895,166.574234 
	C56.517159,166.406448 56.071491,165.633148 56.006691,164.865494 
	C55.807274,164.531372 55.607857,164.197235 55.136909,162.978409 
	C55.126396,156.494110 55.081375,150.009644 55.112030,143.525543 
	C55.194496,126.080887 55.309273,108.636375 56.163059,90.771935 
	C56.472820,89.990517 56.782585,89.209091 57.781906,88.624947 
M20.984419,91.500069 
	C20.984419,84.417503 20.984419,77.334938 20.984419,70.252373 
	C20.769005,70.260033 20.553591,70.267693 20.338177,70.275352 
	C20.338177,102.093414 20.338177,133.911469 20.338177,165.729538 
	C20.553577,165.729065 20.768976,165.728592 20.984377,165.728119 
	C20.984377,141.318756 20.984377,116.909401 20.984419,91.500069 
M20.984573,53.083229 
	C20.984573,40.090038 20.984573,27.096851 20.984573,14.103662 
	C20.757639,14.106981 20.530703,14.110301 20.303768,14.113622 
	C20.303768,28.355524 20.303768,42.597424 20.303768,56.839329 
	C20.530689,56.839130 20.757610,56.838936 20.984531,56.838737 
	C20.984531,55.875763 20.984531,54.912785 20.984573,53.083229 
z"/>
<path fill="#F9F9F9" opacity="1.000000" stroke="none" 
	d="
M55.549911,165.136642 
	C56.071491,165.633148 56.517159,166.406448 57.128895,166.574234 
	C58.959339,167.076218 62.302380,167.013260 62.470779,167.756409 
	C63.150356,170.755386 63.657722,174.286545 62.603489,176.986649 
	C62.037624,178.435898 58.171764,178.596710 55.292267,179.495911 
	C55.292267,182.187454 55.292267,185.299637 55.292267,189.307343 
	C50.497368,189.307343 46.086605,189.307327 41.675842,189.307343 
	C37.843056,189.307358 34.010265,189.307037 30.177479,189.307510 
	C22.748552,189.308411 23.107090,189.299255 22.917288,182.019424 
	C22.793335,177.265167 26.266632,178.563995 28.795475,177.705246 
	C28.795475,174.382324 28.795475,171.124786 28.795475,167.481262 
	C22.962128,168.084686 22.941439,164.500748 22.966843,160.061218 
	C23.130856,131.399582 23.119804,102.736176 22.972425,74.074348 
	C22.951126,69.931984 23.749388,67.637161 28.431570,68.362778 
	C32.539642,68.999413 32.414902,66.250862 32.425037,63.360443 
	C32.435852,60.275852 32.522003,57.430428 28.150188,58.055477 
	C24.241875,58.614254 22.887234,57.102898 22.962988,53.067955 
	C23.191296,40.907410 23.033031,28.739710 23.045683,16.574820 
	C23.046656,15.641115 23.205439,14.707575 23.368534,12.925246 
	C24.913803,14.145145 25.943451,14.821367 26.811569,15.664004 
	C38.142994,26.662792 49.375050,37.765656 60.822857,48.641560 
	C63.485161,51.170860 67.456352,52.438637 69.796112,55.168861 
	C76.122871,62.551434 81.895836,70.408607 87.615074,77.727631 
	C81.270309,83.977921 74.574715,90.573822 67.377464,97.663902 
	C64.728958,95.169029 61.255432,91.896988 56.895424,88.453590 
	C55.809704,89.252090 55.610462,90.221954 55.411224,91.191811 
	C55.309273,108.636375 55.194496,126.080887 55.112030,143.525543 
	C55.081375,150.009644 55.126396,156.494110 55.198948,163.751297 
	C55.357296,164.728333 55.453602,164.932495 55.549911,165.136642 
z"/>
<path fill="#F8F8F8" opacity="1.000000" stroke="none" 
	d="
M175.177551,44.984577 
	C175.245575,47.626907 175.313583,50.269238 175.237427,53.665981 
	C175.727219,55.945667 176.361191,57.470936 176.995148,58.996208 
	C174.446503,61.831867 171.897858,64.667519 168.756454,67.841324 
	C165.208282,68.590004 162.252869,69.000526 159.297440,69.411057 
	C153.931030,74.586914 148.488998,79.687019 143.212921,84.953400 
	C129.537460,98.603737 115.939095,112.331276 102.295525,126.013618 
	C101.264473,127.047592 100.119362,127.967827 98.446732,129.458206 
	C91.977463,122.863899 85.648041,116.544029 79.553734,110.005028 
	C78.913132,109.317696 79.104774,106.803993 79.843597,106.038780 
	C91.643295,93.817749 103.593094,81.741615 115.519661,69.643280 
	C115.979568,69.176743 116.560875,68.449272 117.066154,68.465088 
	C124.805138,68.707420 127.348228,61.533020 133.284912,57.869087 
	C131.465988,57.033566 130.427765,56.556660 129.619873,56.185558 
	C144.344131,41.506023 158.935989,26.958466 174.697037,11.245290 
	C174.697037,19.118090 174.697037,26.118658 174.542236,33.892403 
	C174.650803,38.105244 174.914185,41.544910 175.177551,44.984577 
z"/>
<path fill="#FCFCFC" opacity="1.000000" stroke="none" 
	d="
M174.445969,188.192398 
	C172.917404,188.560089 171.392731,189.225845 169.859634,189.245850 
	C161.542221,189.354385 153.222717,189.303391 144.177765,188.967743 
	C143.710190,184.972443 140.055084,180.365479 146.011795,178.094696 
	C146.455597,178.129608 146.899414,178.164505 147.927490,178.286713 
	C152.648666,175.810150 150.046509,171.820068 150.093216,168.609650 
	C150.106293,167.712006 145.964233,166.753891 143.212067,165.608734 
	C143.196976,165.520676 142.945297,164.733566 142.944351,163.946167 
	C142.920288,143.891876 142.897720,123.837479 142.967407,103.783417 
	C142.972961,102.190834 143.649323,100.600578 144.013947,99.009247 
	C152.388916,90.701744 160.733231,82.362801 169.177231,74.126038 
	C170.246948,73.082581 171.839188,72.574768 173.189346,71.818794 
	C173.598404,73.309486 174.360657,74.799316 174.364258,76.290993 
	C174.432831,104.721046 174.372955,133.151505 174.507568,161.581085 
	C174.515594,163.276337 175.933167,164.964890 177.372711,166.938721 
	C178.582474,170.558548 179.114380,173.896240 179.646286,177.233932 
	C179.546936,177.380386 179.447571,177.526855 178.824066,177.843018 
	C177.060837,178.748749 175.821762,179.484818 174.582672,180.220886 
	C174.531235,180.570679 174.479797,180.920486 174.290024,181.968109 
	C174.249786,184.508102 174.347885,186.350250 174.445969,188.192398 
z"/>
<path fill="#5D5D5D" opacity="1.000000" stroke="none" 
	d="
M143.707550,98.992218 
	C143.649323,100.600578 142.972961,102.190834 142.967407,103.783417 
	C142.897720,123.837479 142.920288,143.891876 142.944351,163.946167 
	C142.945297,164.733566 143.196976,165.520676 143.212067,165.608734 
	C145.964233,166.753891 150.106293,167.712006 150.093216,168.609650 
	C150.046509,171.820068 152.648666,175.810150 148.254684,178.214386 
	C148.372101,175.244827 148.746567,172.434875 149.078384,169.945099 
	C146.162476,168.914246 144.002319,168.150574 141.497437,166.701508 
	C141.175995,144.361649 141.199265,122.707161 141.222519,101.052673 
	C141.948746,100.360168 142.674957,99.667679 143.707550,98.992218 
z"/>
<path fill="#080808" opacity="1.000000" stroke="none" 
	d="
M140.801910,101.107590 
	C141.199265,122.707161 141.175995,144.361649 141.205994,166.477417 
	C140.506821,165.911026 139.104446,164.887405 139.098022,163.855118 
	C138.972977,143.746399 138.995224,123.636597 139.072815,103.527351 
	C139.075851,102.737396 139.925919,101.950714 140.801910,101.107590 
z"/>
<path fill="#050505" opacity="1.000000" stroke="none" 
	d="
M20.984398,92.000053 
	C20.984377,116.909401 20.984377,141.318756 20.984377,165.728119 
	C20.768976,165.728592 20.553577,165.729065 20.338177,165.729538 
	C20.338177,133.911469 20.338177,102.093414 20.338177,70.275352 
	C20.553591,70.267693 20.769005,70.260033 20.984419,70.252373 
	C20.984419,77.334938 20.984419,84.417503 20.984398,92.000053 
z"/>
<path fill="#050505" opacity="1.000000" stroke="none" 
	d="
M20.984552,53.516518 
	C20.984531,54.912785 20.984531,55.875763 20.984531,56.838737 
	C20.757610,56.838936 20.530689,56.839130 20.303768,56.839329 
	C20.303768,42.597424 20.303768,28.355524 20.303768,14.113622 
	C20.530703,14.110301 20.757639,14.106981 20.984573,14.103662 
	C20.984573,27.096851 20.984573,40.090038 20.984552,53.516518 
z"/>
<path fill="#5D5D5D" opacity="1.000000" stroke="none" 
	d="
M145.779327,177.852386 
	C140.055084,180.365479 143.710190,184.972443 143.707306,188.982834 
	C143.681839,189.475601 143.400665,189.613693 143.119507,189.751785 
	C142.463104,186.593048 141.470367,183.444351 141.375565,180.268845 
	C141.350357,179.424850 144.081345,178.498566 145.779327,177.852386 
z"/>
<path fill="#6E6E6E" opacity="1.000000" stroke="none" 
	d="
M175.475174,44.708076 
	C174.914185,41.544910 174.650803,38.105244 174.597702,34.329407 
	C175.129562,37.472679 175.451172,40.952126 175.475174,44.708076 
z"/>
<path fill="#696969" opacity="1.000000" stroke="none" 
	d="
M179.942505,177.025421 
	C179.114380,173.896240 178.582474,170.558548 177.794540,166.910385 
	C178.553284,167.407791 180.328262,168.124985 180.437500,169.040863 
	C180.741394,171.588730 180.353424,174.219101 179.942505,177.025421 
z"/>
<path fill="#3B3B3B" opacity="1.000000" stroke="none" 
	d="
M159.755722,69.606308 
	C162.252869,69.000526 165.208282,68.590004 168.604126,68.139252 
	C166.753174,72.048996 163.177231,69.336266 159.755722,69.606308 
z"/>
<path fill="#6E6E6E" opacity="1.000000" stroke="none" 
	d="
M177.329865,58.966774 
	C176.361191,57.470936 175.727219,55.945667 175.300232,54.097488 
	C177.031067,55.159225 180.766846,55.619591 177.329865,58.966774 
z"/>
<path fill="#696969" opacity="1.000000" stroke="none" 
	d="
M174.814743,188.128448 
	C174.347885,186.350250 174.249786,184.508102 174.319244,182.232819 
	C174.719009,183.887955 174.951263,185.976242 174.814743,188.128448 
z"/>
<path fill="#696969" opacity="1.000000" stroke="none" 
	d="
M174.916046,180.108948 
	C175.821762,179.484818 177.060837,178.748749 178.694000,178.074448 
	C177.808533,178.756485 176.528976,179.376740 174.916046,180.108948 
z"/>
<path fill="#000000" opacity="1.000000" stroke="none" 
	d="
M55.787140,90.981873 
	C55.610462,90.221954 55.809704,89.252090 56.550648,88.354950 
	C56.782585,89.209091 56.472820,89.990517 55.787140,90.981873 
z"/>
<path fill="#000000" opacity="1.000000" stroke="none" 
	d="
M55.778301,165.001068 
	C55.453602,164.932495 55.357296,164.728333 55.334709,164.193649 
	C55.607857,164.197235 55.807274,164.531372 55.778301,165.001068 
z"/>
</svg>